HIERARCHY
ROOT __0
{
	OFFSET 0.0 0.0 0.0
	CHANNELS 0
	JOINT spine
	{
		OFFSET 0.000000 -0.014402 0.264660
		CHANNELS 6 Xposition Yposition Zposition Xrotation Yrotation Zrotation
		JOINT spine top
		{
			OFFSET -0.000000 0.058246 0.209758
			CHANNELS 3 Xrotation Yrotation Zrotation
			JOINT NeckBot
			{
				OFFSET 0.000000 -0.034711 0.125681
				CHANNELS 3 Xrotation Yrotation Zrotation
				JOINT NeckTop
				{
					OFFSET -0.000000 -0.014527 0.216432
					CHANNELS 3 Xrotation Yrotation Zrotation
					End Site
					{
						OFFSET 0.000000 0.018502 0.278669
					}
				}
			}
			JOINT ArmStartTop.L
			{
				OFFSET 0.016245 -0.034711 0.119841
				CHANNELS 6 Xposition Yposition Zposition Xrotation Yrotation Zrotation
				JOINT ArmMidTop.L
				{
					OFFSET 0.044463 0.000000 -0.029495
					CHANNELS 3 Xrotation Yrotation Zrotation
					JOINT ArmEndTop.L
					{
						OFFSET 0.393913 -0.000000 -0.000000
						CHANNELS 3 Xrotation Yrotation Zrotation
						End Site
						{
							OFFSET 0.461072 0.000000 0.000000
						}
					}
				}
			}
			JOINT ArmStart.R
			{
				OFFSET -0.016272 -0.034711 0.121166
				CHANNELS 6 Xposition Yposition Zposition Xrotation Yrotation Zrotation
				JOINT ArmMid.R
				{
					OFFSET -0.042500 0.000000 -0.029253
					CHANNELS 3 Xrotation Yrotation Zrotation
					JOINT ArmEnd.R
					{
						OFFSET -0.393079 -0.000000 0.000000
						CHANNELS 3 Xrotation Yrotation Zrotation
						End Site
						{
							OFFSET -0.483935 -0.000000 0.000000
						}
					}
				}
			}
		}
		JOINT ArmStartBot.L
		{
			OFFSET 0.038272 0.023939 0.230171
			CHANNELS 6 Xposition Yposition Zposition Xrotation Yrotation Zrotation
			JOINT ArmMidBot.L
			{
				OFFSET 0.048653 0.000000 -0.026886
				CHANNELS 3 Xrotation Yrotation Zrotation
				JOINT ArmEndBot.L
				{
					OFFSET 0.367740 -0.000000 -0.000000
					CHANNELS 3 Xrotation Yrotation Zrotation
					End Site
					{
						OFFSET 0.466508 -0.000000 -0.000000
					}
				}
			}
		}
		JOINT spider thingy.L
		{
			OFFSET 0.025407 0.014563 0.059552
			CHANNELS 6 Xposition Yposition Zposition Xrotation Yrotation Zrotation
			JOINT Bone.016
			{
				OFFSET 0.041396 -0.045012 0.007200
				CHANNELS 3 Xrotation Yrotation Zrotation
				End Site
				{
					OFFSET 0.011846 -0.065345 0.009206
				}
			}
		}
		JOINT spider thingy.R
		{
			OFFSET -0.027532 0.007880 0.057875
			CHANNELS 6 Xposition Yposition Zposition Xrotation Yrotation Zrotation
			JOINT Bone.018
			{
				OFFSET -0.037885 -0.045958 0.008877
				CHANNELS 3 Xrotation Yrotation Zrotation
				End Site
				{
					OFFSET -0.005129 -0.065345 0.009206
				}
			}
		}
	}
	JOINT pelvis top
	{
		OFFSET 0.000000 -0.014402 0.264660
		CHANNELS 6 Xposition Yposition Zposition Xrotation Yrotation Zrotation
		JOINT pelvis.L
		{
			OFFSET -0.000000 0.000000 -0.102221
			CHANNELS 3 Xrotation Yrotation Zrotation
			JOINT leg.L
			{
				OFFSET 0.092417 0.000000 -0.033701
				CHANNELS 3 Xrotation Yrotation Zrotation
				JOINT foot.L
				{
					OFFSET 0.022013 0.000000 -0.396427
					CHANNELS 3 Xrotation Yrotation Zrotation
					End Site
					{
						OFFSET -0.022013 0.000000 -0.207485
					}
				}
			}
		}
		JOINT pelvis.R
		{
			OFFSET 0.000000 0.000000 -0.102221
			CHANNELS 3 Xrotation Yrotation Zrotation
			JOINT Leg.R
			{
				OFFSET -0.089835 -0.000000 -0.034513
				CHANNELS 3 Xrotation Yrotation Zrotation
				JOINT foot.R
				{
					OFFSET -0.009175 0.000000 -0.383270
					CHANNELS 3 Xrotation Yrotation Zrotation
					End Site
					{
						OFFSET 0.009178 0.000000 -0.226021
					}
				}
			}
		}
	}
}
MOTION
Frames: 6
Frame Time: 0.041667
0.000000 -0.014402 0.264660 104.108175 0.000000 -0.000000 -29.392083 -0.000000 -0.000000 26.670914 -0.000000 -0.000000 -60.353621 -0.447695 4.402478 0.016245 -0.034711 0.119841 -3.107618 -9.563722 10.888384 -7.174877 4.012392 -2.065030 -1.537195 -0.133977 -69.890976 -0.016272 -0.034711 0.121166 6.992721 8.152208 -11.001141 -41.694415 -17.954419 26.166748 32.853780 -13.538255 62.672696 0.038272 0.024147 0.230450 -0.998606 -0.000001 0.000001 20.865326 16.928262 -23.922102 -33.766136 -35.844908 -52.199103 0.025407 0.014563 0.059552 -0.004547 0.494108 1.054435 -0.003923 0.458938 0.979370 -0.027532 0.007880 0.057875 -0.004547 -0.494108 -1.054437 -0.003921 -0.458936 -0.979367 0.000000 -0.014402 0.264660 50.395608 2.055256 -0.321962 14.188601 2.279571 -5.005041 -51.013204 -4.703311 -0.075269 21.062580 -0.578264 -0.200841 14.914213 5.639531 -12.559057 -21.345542 -9.547743 9.190446 3.472176 -0.302279 -0.210208 
0.000000 -0.014402 0.264660 103.109594 0.000000 -0.000000 -27.814286 0.000000 -0.000000 27.614124 -0.000000 -0.000000 -61.936825 -0.447695 4.402477 0.016245 -0.034711 0.119841 -3.107615 -9.563721 10.888385 -7.269215 2.235807 -1.086293 -1.948581 -0.487193 -69.213271 -0.016272 -0.034711 0.121166 6.992719 8.152208 -11.001141 -41.727186 -17.804749 25.428063 33.827342 -13.804900 62.194726 0.038272 0.023939 0.230171 -0.000001 0.000001 0.000000 20.535659 16.627672 -22.344756 -35.015501 -36.342252 -52.216345 0.025407 0.014563 0.059552 -0.000001 0.000000 0.000002 0.000001 -0.000001 -0.000001 -0.027532 0.007880 0.057875 0.000002 -0.000000 -0.000000 -0.000000 0.000001 0.000002 0.000000 -0.014402 0.264660 51.477165 2.055257 -0.321962 14.219819 2.485539 -5.460685 -52.945683 -5.169643 -0.120343 19.795789 -0.634596 -0.190626 15.062737 6.137926 -13.708082 -21.423418 -10.462346 10.044063 0.850277 -0.330935 -0.193520 
0.000000 -0.014402 0.264660 103.109594 0.000000 -0.000000 -26.649832 0.000000 -0.000000 26.449667 -0.000000 -0.000000 -63.087548 -0.447695 4.402478 0.016245 -0.034711 0.119841 -3.107618 -9.563721 10.888384 -7.294995 1.651855 -1.729315 -2.514612 -0.626069 -69.088805 -0.016272 -0.034711 0.121166 6.992719 8.152207 -11.001137 -42.015072 -17.846079 23.541314 34.378763 -13.819779 61.273012 0.038272 0.023939 0.230171 -0.000001 0.000001 0.000000 20.783185 14.570018 -22.705897 -35.817645 -35.991351 -52.369728 0.025407 0.014563 0.059552 -0.001923 -0.226487 -0.972581 -0.001614 -0.207661 -0.891734 -0.027532 0.007880 0.057875 -0.001921 0.226486 0.972579 -0.001615 0.207661 0.891737 0.000000 -0.014402 0.264660 52.972444 2.055256 -0.321962 14.174600 2.252022 -4.756787 -54.246602 -4.443157 -0.423388 20.257428 -0.600252 -0.233745 14.876097 5.599461 -12.145763 -23.291121 -9.455170 8.641452 3.806437 -0.294849 -0.195650 
0.000000 -0.014402 0.264660 103.109594 0.000000 -0.000000 -25.484182 0.000000 -0.000000 25.284016 -0.000000 -0.000000 -64.239439 -0.447695 4.402477 0.016245 -0.034711 0.119841 -3.107618 -9.563721 10.888385 -7.327346 1.067890 -2.372815 -3.080512 -0.766203 -68.965677 -0.016272 -0.034711 0.121166 6.992717 8.152207 -11.001139 -42.305031 -17.878437 21.649174 34.930509 -13.843299 60.350418 0.038272 0.023939 0.230171 -0.000001 0.000001 0.000000 21.016050 12.503965 -23.055975 -36.615490 -35.638582 -52.516433 0.025407 0.014563 0.059552 -0.007695 -0.453079 -1.945932 -0.006465 -0.415405 -1.784062 -0.027532 0.007880 0.057875 -0.007694 0.453080 1.945939 -0.006467 0.415403 1.784057 0.000000 -0.014402 0.264660 54.470304 2.055257 -0.321962 14.132239 2.017875 -4.052887 -55.544690 -3.708748 -0.710031 20.719174 -0.566253 -0.277146 14.704096 5.055003 -10.583347 -25.135941 -8.399243 7.270911 6.782816 -0.258676 -0.199671 
0.000000 -0.014402 0.264660 103.109594 0.000000 -0.000000 -24.317552 -0.000000 0.000000 24.117388 -0.000000 -0.000000 -65.392272 -0.447695 4.402478 0.016245 -0.034711 0.119841 -3.107617 -9.563721 10.888385 -7.366268 0.484054 -3.016854 -3.646258 -0.907581 -68.843922 -0.016272 -0.034711 0.121166 6.992718 8.152208 -11.001141 -42.596601 -17.901704 19.752721 35.482320 -13.875472 59.427215 0.038272 0.023939 0.230171 -0.000001 0.000001 0.000000 21.234954 10.430982 -23.395869 -37.409031 -35.284054 -52.656517 0.025407 0.014563 0.059552 -0.017322 -0.679682 -2.919946 -0.014560 -0.623152 -2.676889 -0.027532 0.007880 0.057875 -0.017320 0.679682 2.919948 -0.014560 0.623152 2.676898 0.000000 -0.014402 0.264660 55.970214 2.055257 -0.321962 14.092756 1.783142 -3.349019 -56.839912 -2.967033 -0.980085 21.181002 -0.532600 -0.320825 14.546927 4.505162 -9.021228 -26.956229 -7.296760 5.934351 9.775568 -0.222564 -0.205602 
0.000000 -0.014402 0.264660 103.109594 0.000000 -0.000000 -23.150202 -0.000000 0.000000 22.950038 -0.000000 -0.000000 -66.545795 -0.447695 4.402479 0.016245 -0.034711 0.119841 -3.107617 -9.563722 10.888385 -7.411758 -0.099504 -3.661489 -4.211814 -1.050179 -68.723533 -0.016272 -0.034711 0.121166 6.992722 8.152208 -11.001141 -42.889299 -17.915783 17.853051 36.033968 -13.916304 58.503637 0.038272 0.023939 0.230171 -0.000001 0.000001 0.000000 21.440522 8.352550 -23.726395 -38.198297 -34.927880 -52.790037 0.025407 0.014563 0.059552 -0.030810 -0.906189 -3.894490 -0.025890 -0.830830 -3.570136 -0.027532 0.007880 0.057875 -0.030808 0.906188 3.894491 -0.025892 0.830831 3.570140 0.000000 -0.014402 0.264660 57.471671 2.055256 -0.321962 14.056162 1.547881 -2.645221 -58.132170 -2.218649 -1.233394 21.642904 -0.499298 -0.364777 14.404784 3.950570 -7.459793 -28.750585 -6.150090 4.633433 12.780720 -0.186663 -0.213448 
